<svg width="114" height="59" viewBox="0 0 114 59" fill="none" xmlns="http://www.w3.org/2000/svg">
<path d="M34.0427 32.6536C33.9818 32.7388 33.9288 32.8294 33.8842 32.9243C33.6862 33.3403 33.8842 34.3637 33.8842 34.8325V41.9967C33.8258 42.9491 33.9399 43.9043 34.221 44.8161C34.6891 45.8342 35.393 46.726 36.2745 47.4177C44.6734 54.9912 56.6247 57.573 67.9157 56.9589C76.1297 56.5099 84.8852 54.3177 91.1514 48.5996C92.3937 47.5462 93.4071 46.2496 94.1293 44.7897C95.8395 40.9732 94.2416 36.5097 94.8424 32.3696L52.3592 32.4687L38.3478 32.5017C37.2121 32.5017 36.0764 32.5017 34.9473 32.5017C34.3663 32.5149 34.2078 32.4423 34.0427 32.6536Z" fill="#D7E3F4"/>
<path d="M17.0271 24.6573C20.9888 20.6955 26.7598 18.8665 32.0289 17.4931C37.9055 15.9612 43.6434 14.0728 49.4012 12.1382L61.9864 7.89908C62.5703 7.54888 63.2285 7.34127 63.9077 7.29309C64.5868 7.2449 65.2678 7.3575 65.8953 7.62175C68.3186 8.46032 112.373 23.3631 112.373 23.3631C112.373 23.3631 114.519 25.0403 112.466 26.9023C108.742 28.2229 67.6649 41.8051 67.6649 41.8051C65.7366 42.3997 63.6837 42.4636 61.7222 41.99C46.4431 37.7179 31.461 31.9535 16.4658 26.8957C16.2666 26.8469 16.087 26.7387 15.9508 26.5853C15.7263 26.2486 15.9904 25.8062 16.2545 25.5025C16.5186 25.1987 16.7497 24.928 17.0271 24.6573Z" fill="#D7E3F4"/>
<path d="M62.0788 17.8037L31.045 27.8665C31.045 27.8665 27.1493 29.3456 27.1493 32.9904C27.1493 36.6352 27.4332 40.5309 27.4332 40.5309L27.1493 45.5359L25.7561 55.9686C25.7561 55.9686 25.1948 58.2928 26.7796 58.6097C28.3857 58.8011 30.002 58.8937 31.6195 58.887C31.6195 58.887 33.4881 59.1644 33.1118 56.0016C32.7354 52.8388 31.5271 45.5359 31.5271 45.5359L31.4346 32.3301C31.4346 32.3301 30.6885 31.3991 33.2966 30.8378C35.9048 30.2766 52.5772 25.1593 52.5772 25.1593L64.0068 21.3296C64.2643 21.244 64.5006 21.1044 64.6999 20.9202C64.8991 20.7361 65.0568 20.5115 65.1624 20.2615C65.268 20.0116 65.3191 19.742 65.3123 19.4707C65.3054 19.1994 65.2408 18.9328 65.1227 18.6885C64.4096 16.767 62.0788 17.8037 62.0788 17.8037Z" fill="#D7E3F4"/>
<path d="M29.3877 39.9629C29.3877 39.9629 33.4881 40.0553 33.4881 44.0567C33.4881 48.0581 29.4801 48.0647 29.4801 48.0647C29.4801 48.0647 25.4259 47.5959 25.4259 44.0105C25.4259 40.4251 29.3877 39.9629 29.3877 39.9629Z" fill="#D7E3F4"/>
<path d="M20.3351 27.2391C20.2825 27.265 20.2372 27.3036 20.2031 27.3513C20.1421 27.4366 20.0891 27.5272 20.0446 27.622C19.8465 28.038 20.0446 29.0615 20.0446 29.5303V36.6944C19.9845 37.6513 20.0986 38.611 20.3813 39.5271C20.8419 40.5423 21.5366 41.4339 22.4084 42.1287C30.7941 49.689 42.7586 52.2707 54.0496 51.6567C62.2637 51.2077 71.0192 49.0155 77.2853 43.2974C78.5276 42.244 79.541 40.9474 80.2632 39.4875C81.9734 35.671 80.3755 31.2074 80.9764 27.0674" stroke="#327596" stroke-width="2.78" stroke-miterlimit="10"/>
<path d="M3.18732 19.3553C7.14907 15.3935 12.92 13.5645 18.1892 12.1911C24.0658 10.6592 29.8037 8.77078 35.5615 6.84272L48.1466 2.61685C48.7305 2.26666 49.3888 2.05904 50.0679 2.01086C50.7471 1.96268 51.4281 2.07528 52.0556 2.33953C54.4788 3.1781 98.5335 18.0809 98.5335 18.0809C98.5335 18.0809 100.679 19.758 98.626 21.6201C94.9019 22.9406 53.8251 36.5229 53.8251 36.5229C51.8969 37.1175 49.844 37.1814 47.8825 36.7077C32.6033 32.4158 17.6279 26.6515 2.59966 21.5937C2.40046 21.5449 2.22083 21.4366 2.08463 21.2833C1.86013 20.9466 2.12425 20.5042 2.38837 20.2004C2.65248 19.8967 2.91 19.626 3.18732 19.3553Z" stroke="#327596" stroke-width="2.78" stroke-miterlimit="10"/>
<path d="M48.2391 12.4951L17.2053 22.5513C17.2053 22.5513 13.2898 24.0436 13.2898 27.6752C13.2898 31.3068 13.6265 35.2157 13.6265 35.2157L13.3426 40.2471L11.9494 50.6798C11.9494 50.6798 11.3881 53.0106 12.9728 53.3209C14.579 53.5123 16.1953 53.6049 17.8128 53.5983C17.8128 53.5983 19.6814 53.8756 19.3051 50.7128C18.9287 47.55 17.7204 40.2802 17.7204 40.2802L17.6279 27.0743C17.6279 27.0743 16.8818 26.1433 19.4899 25.5821C22.0981 25.0208 38.7176 19.8507 38.7176 19.8507L50.1737 16.0342C50.4311 15.9484 50.6674 15.8088 50.8668 15.6248C51.0662 15.4407 51.2242 15.2164 51.3303 14.9667C51.4365 14.7169 51.4883 14.4475 51.4824 14.1762C51.4766 13.9049 51.4131 13.638 51.2962 13.3931C50.6029 11.465 48.2391 12.4951 48.2391 12.4951Z" stroke="#327596" stroke-width="2.78" stroke-miterlimit="10"/>
<path d="M15.548 34.6611C15.548 34.6611 19.6484 34.7536 19.6484 38.7549C19.6484 42.7563 15.6404 42.7629 15.6404 42.7629C15.6404 42.7629 11.5862 42.2941 11.5862 38.7087C11.5862 35.1233 15.548 34.6611 15.548 34.6611Z" fill="white" stroke="#327596" stroke-width="2.78" stroke-miterlimit="10"/>
</svg>
