<svg width="92" height="121" viewBox="0 0 92 121" fill="none" xmlns="http://www.w3.org/2000/svg">
<path d="M72.7524 30.8877C72.1663 30.9582 71.576 30.989 70.9858 30.98H32.5142C31.2339 30.98 29.8489 30.9801 28.8209 30.1983C28.3664 29.8586 28.0146 29.3998 27.8045 28.8727C27.5943 28.3456 27.534 27.7706 27.6302 27.2114C27.7264 26.6521 27.9753 26.1303 28.3495 25.7037C28.7236 25.277 29.2085 24.9622 29.7504 24.7938C30.1296 24.7368 30.4913 24.5959 30.8091 24.3814C31.1244 24.0101 31.2853 23.532 31.2585 23.0457C31.4843 19.4838 32.5517 16.0262 34.3731 12.9569C36.2191 9.88761 39.0346 7.52045 42.3752 6.22898L43.4894 12.7845C43.7417 14.268 44.3819 16.1146 45.8838 16.17C46.7471 13.6658 46.8244 10.9575 46.1054 8.40801C45.7396 7.41216 45.4797 6.38056 45.3298 5.33028C45.0159 0.947603 51.9408 2.38798 54.7415 2.37567C55.5913 2.29665 56.4459 2.4633 57.2037 2.8558C58.7179 3.83452 58.5148 6.08125 58.127 7.84171L56.6743 14.4711C56.4835 15.3391 56.5205 16.5763 57.3945 16.7363C58.2686 16.8964 58.7303 15.813 58.8965 14.9636L60.2753 7.8848C60.3057 7.42361 60.5156 6.99268 60.86 6.68448C61.4263 6.309 62.1773 6.68448 62.7067 7.09074C65.4529 8.94435 67.8199 11.3052 69.6808 14.0464C71.5471 16.8052 72.4871 20.0864 72.3646 23.415C73.5832 23.9661 74.6113 24.8656 75.3192 26.0003C75.6589 26.5727 75.822 27.2326 75.788 27.8973C75.7541 28.562 75.5246 29.2019 75.1284 29.7367C74.5032 30.3972 73.6582 30.8065 72.7524 30.8877Z" fill="#D7E3F4"/>
<path d="M30.6553 34.7101C30.9015 34.5131 31.3754 34.5008 32.2249 34.4885C44.6466 34.2854 57.1052 34.587 69.5331 34.6362H72.5185C73.1923 36.7347 73.0851 39.006 72.2169 41.0317C71.3487 43.0344 70.2629 44.9356 68.9791 46.7009C66.3569 50.6465 63.8085 54.7645 60.1152 57.7253C56.422 60.6861 51.2083 62.3173 46.8626 60.4953C45.4832 59.8643 44.2037 59.0347 43.0646 58.0331C39.2998 54.9184 36.2067 51.0714 33.973 46.7255C32.8407 44.5109 31.9373 42.1864 31.277 39.7883C30.9392 38.644 30.6801 37.4779 30.5014 36.2982C30.4029 35.3687 30.3906 34.9255 30.6553 34.7101Z" fill="#D7E3F4"/>
<path d="M38.2265 61.7572C38.4404 61.7289 38.6575 61.7746 38.842 61.8864C41.0599 63.3137 43.4566 64.4417 45.97 65.2412C48.8419 66.0812 51.8612 66.2916 54.8218 65.8582C57.7824 65.4248 60.6147 64.3577 63.1253 62.7297C63.8516 62.2496 64.6333 61.6956 65.5013 61.7756C66.2725 61.9413 66.9748 62.3386 67.5141 62.9144C70.3363 65.2806 73.7341 66.8584 77.3628 67.4879C81.2715 68.1527 85.7896 67.888 88.5657 70.7134C90.7571 72.9478 91.0648 76.3579 91.2495 79.4787L91.7666 88.361C91.9366 89.6036 91.8122 90.8687 91.4034 92.0543C90.6832 93.6855 88.9781 94.6211 87.3593 95.3598C84.7493 96.5539 82.0533 97.545 79.3572 98.4744C77.6829 99.0469 75.6147 99.5209 74.3282 98.3144C74.0892 98.0672 73.9018 97.7749 73.7769 97.4545C73.652 97.1342 73.5921 96.7922 73.6007 96.4484C73.6092 96.1047 73.6862 95.7661 73.8269 95.4524C73.9677 95.1386 74.1695 94.8561 74.4205 94.6211C75.0078 94.2282 75.6252 93.8824 76.2671 93.587C76.8974 93.1658 77.4183 92.6005 77.7865 91.9379C78.1548 91.2753 78.3598 90.5345 78.3846 89.7768C78.415 88.2607 78.0159 86.7669 77.2335 85.468C76.2487 83.7014 74.679 82.1009 72.6847 81.7747C70.6903 81.4485 68.3759 82.3348 67.0032 80.9191C65.6305 79.5033 66.56 77.2258 66.3876 75.2376C66.1968 72.8308 64.1101 70.818 61.7464 70.3133C59.6757 69.9305 57.5374 70.3723 55.788 71.5443C54.8831 72.1599 54.1752 73.7849 53.4181 74.1973C52.187 74.8621 50.5435 75.2007 49.4478 74.1973C47.6012 72.4553 45.453 69.7039 42.5845 70.184C40.6402 70.4866 38.8874 71.5272 37.6909 73.0894C36.2875 75.0653 36.7553 77.115 36.7553 79.3679C36.7553 79.0478 36.7553 82.0086 33.2775 81.4915C29.9597 80.9991 27.122 83.3997 25.971 86.3482C24.5614 89.9061 25.6386 92.6698 28.7655 94.5719C30.1074 95.3906 30.2982 98.1482 28.6239 98.7576C26.488 99.5332 11.5672 95.8091 11.4379 90.9833C11.3087 86.1574 12.3305 74.1112 12.9645 73.4772C13.5985 72.8431 14.0417 68.8482 20.8927 67.8942C24.2066 67.5012 27.4742 66.7858 30.6491 65.7582C32.2384 65.2296 33.7689 64.5386 35.2164 63.6961C36.029 63.2222 37.217 61.8618 38.2265 61.7572Z" fill="#D7E3F4"/>
<path d="M54.7477 109.376C55.0562 109.399 55.3627 109.445 55.6649 109.511C58.8041 110.176 60.9462 112.995 62.7929 115.617C63.0013 115.838 63.1585 116.102 63.2532 116.39C63.3479 116.679 63.3778 116.984 63.3407 117.285C63.1735 117.683 62.8819 118.016 62.5097 118.233C61.6352 118.942 60.6436 119.492 59.5797 119.858C59.0458 120.037 58.4781 120.091 57.9202 120.016C57.3622 119.941 56.8287 119.74 56.3604 119.428C55.4002 118.701 55.0062 117.446 54.1629 116.59C53.5583 116.016 52.7773 115.663 51.947 115.59C51.1166 115.516 50.2857 115.725 49.5894 116.184C48.4445 116.996 47.8351 118.437 46.6225 119.144C46.0597 119.43 45.4398 119.585 44.8089 119.597C44.178 119.61 43.5524 119.481 42.9785 119.218C41.8373 118.684 40.7832 117.98 39.8515 117.132C39.2856 116.766 38.8703 116.209 38.682 115.562C38.5589 114.799 39.0698 114.091 39.3344 113.358C39.4785 112.853 39.5131 112.322 39.4358 111.803C39.3585 111.283 39.1711 110.785 38.8862 110.344C38.6013 109.902 38.2253 109.526 37.7836 109.241C37.3418 108.957 36.8443 108.77 36.3244 108.692C34.7302 108.563 33.0867 109.523 31.5786 108.976C30.249 108.495 29.5842 107.043 29.1164 105.719C28.4516 103.947 27.9899 101.608 29.4796 100.444C29.9891 100.131 30.5197 99.8531 31.0677 99.6132C31.5318 99.3103 31.9245 98.9101 32.2186 98.4403C32.5127 97.9705 32.7011 97.4424 32.7708 96.8926C32.8404 96.3428 32.7897 95.7844 32.6221 95.2561C32.4545 94.7278 32.1741 94.2423 31.8002 93.8332C31.2954 93.3408 30.6614 93.0084 30.1259 92.5467C29.4895 91.9969 29.0154 91.2838 28.7547 90.4842C28.494 89.6846 28.4567 88.829 28.6468 88.0098C28.8368 87.1906 29.2471 86.4388 29.8332 85.8357C30.4193 85.2326 31.1591 84.8011 31.9725 84.5877C33.1174 84.2799 34.3178 84.4277 35.4996 84.3784C36.6814 84.3292 37.9618 84.0337 38.6881 83.1042C39.7899 81.7008 39.1313 79.6634 39.3775 77.8906C39.8146 74.7082 43.8033 72.2522 46.6225 74.2589C47.6443 74.9852 48.4014 76.0193 49.3555 76.8318C50.3096 77.6444 51.6023 78.2599 52.7964 77.8783C54.643 77.2627 55.1847 74.8006 56.8959 73.9019C58.1763 73.2309 59.7398 73.6372 61.0632 74.2096C62.6882 74.9175 64.3933 76.1424 64.4795 77.9029C64.5349 79.134 63.8085 80.2112 63.7531 81.4115C63.7428 82.2442 64.0449 83.0506 64.5998 83.6716C65.1547 84.2926 65.9222 84.6832 66.7508 84.7662C68.1727 84.8524 69.5392 83.9968 70.955 84.1199C72.5308 84.2553 73.7496 85.5541 74.6052 86.8837C75.4608 88.2133 76.1748 90.2323 75.1592 91.568C74.4636 92.4913 73.2202 92.7991 72.2969 93.4639C71.5963 94.021 71.1073 94.8011 70.9114 95.6745C70.7154 96.5479 70.8242 97.4621 71.2197 98.2651C72.0568 99.8532 73.9404 100.727 74.6175 102.383C75.2946 104.039 74.5436 105.941 73.7988 107.584C73.5772 108.065 73.3002 108.594 72.7955 108.736C72.6452 108.766 72.4903 108.766 72.34 108.736C71.9221 108.607 71.5418 108.379 71.232 108.071L65.9137 103.423C65.2295 102.903 64.6649 102.242 64.2579 101.484C63.8085 100.481 63.9501 99.33 64.0055 98.2344C64.2086 94.2887 63.1129 90.1338 60.3122 87.3269C58.955 86.0013 57.3003 85.0196 55.4863 84.4638C53.6724 83.9081 51.7518 83.7944 49.8849 84.1322C47.919 84.5257 46.0682 85.3608 44.4722 86.5743C42.8763 87.7878 41.5769 89.3481 40.6722 91.1373C39.7675 92.9265 39.2812 94.8979 39.2499 96.9026C39.2186 98.9072 39.6432 100.893 40.4917 102.709C41.428 104.606 42.8482 106.221 44.6088 107.393C46.3695 108.564 48.4082 109.25 50.5189 109.382C51.91 109.462 53.3442 109.253 54.7477 109.376Z" fill="#D7E3F4"/>
<path d="M43.514 93.4888H48.266L50.1742 95.4031H52.2055H54.3045L56.2004 93.5134H60.263" fill="#D7E3F4"/>
<path d="M52.3224 96.6096C52.6469 96.6009 52.9683 96.6734 53.2576 96.8207C53.5468 96.968 53.7945 97.1854 53.9783 97.4529C54.1666 97.7161 54.2896 98.0204 54.3369 98.3406C54.3843 98.6608 54.3547 98.9877 54.2505 99.2942C54.1464 99.6006 53.9707 99.8779 53.7381 100.103C53.5055 100.328 53.2226 100.494 52.9128 100.588C52.6031 100.682 52.2754 100.701 51.9569 100.643C51.6385 100.585 51.3384 100.452 51.0815 100.255C50.8247 100.058 50.6185 99.8031 50.4799 99.5106C50.3414 99.218 50.2746 98.8967 50.285 98.5732C50.3056 98.0462 50.5292 97.5477 50.9089 97.1817C51.2886 96.8158 51.7951 96.6108 52.3224 96.6096Z" fill="#D7E3F4"/>
<path d="M52.3902 97.9821C52.4899 97.9805 52.5885 98.0033 52.6775 98.0483C52.7665 98.0933 52.8432 98.1593 52.9011 98.2406C52.9848 98.3477 53.0307 98.4795 53.0317 98.6155C53.0326 98.7514 52.9885 98.8838 52.9063 98.9921C52.824 99.1003 52.7082 99.1783 52.577 99.2139C52.4458 99.2494 52.3065 99.2405 52.1809 99.1885C52.0535 99.1457 51.9436 99.0623 51.868 98.9512C51.7924 98.8401 51.7553 98.7072 51.7623 98.573C51.7687 98.4119 51.8381 98.2597 51.9555 98.1492C52.0729 98.0387 52.229 97.9787 52.3902 97.9821Z" fill="white"/>
<path d="M62.3558 29.7058C61.7718 29.7764 61.1836 29.8073 60.5954 29.7981H22.1053C20.8188 29.7981 19.44 29.7981 18.4121 29.0102C17.9593 28.6696 17.6093 28.2107 17.4007 27.684C17.1921 27.1573 17.1329 26.5832 17.2296 26.025C17.3264 25.4668 17.5753 24.9461 17.949 24.5204C18.3227 24.0946 18.8067 23.7802 19.3477 23.6119C19.7267 23.5504 20.0879 23.4076 20.4064 23.1933C20.7169 22.8221 20.8753 22.347 20.8496 21.8637C21.0748 18.3122 22.1402 14.865 23.9581 11.8057C25.8045 8.73537 28.6196 6.36634 31.9602 5.07165L33.0805 11.6334C33.3267 13.1107 33.973 14.9573 35.475 15.0189C36.338 12.5124 36.4153 9.80225 35.6966 7.25069C35.3291 6.25493 35.0671 5.22338 34.9148 4.17296C34.607 -0.209719 41.5319 1.23065 44.3327 1.21218C45.1822 1.1366 46.0359 1.30307 46.7948 1.69232C48.3091 2.67719 48.1059 4.91776 47.7181 6.68438L46.2839 13.3138C46.0931 14.1817 46.1239 15.4128 46.998 15.579C47.872 15.7452 48.3337 14.6495 48.4999 13.8001L49.8849 6.72747C49.9032 6.49668 49.967 6.2718 50.0727 6.06579C50.1783 5.85978 50.3237 5.67672 50.5004 5.52716C51.0667 5.15168 51.8115 5.52716 52.347 5.92726C55.0903 7.78435 57.4568 10.1446 59.3212 12.8829C61.1921 15.6471 62.1362 18.9343 62.0173 22.27C63.2336 22.8221 64.2594 23.7215 64.9657 24.8553C65.307 25.4271 65.471 26.0873 65.437 26.7524C65.403 27.4175 65.1726 28.0575 64.7749 28.5916C64.1352 29.251 63.2727 29.6482 62.3558 29.7058V29.7058Z" stroke="#276E90" stroke-width="2" stroke-miterlimit="10"/>
<path d="M20.2464 33.5284C20.4865 33.3315 20.9666 33.3192 21.8099 33.3069C34.2377 33.1037 46.6902 33.4053 59.1181 33.4546H62.1034C62.7825 35.5519 62.6776 37.8243 61.808 39.8501C60.9351 41.8517 59.8474 43.7525 58.5641 45.5193C55.9418 49.4649 53.3996 53.5829 49.7002 56.5498C46.0008 59.5168 40.8241 61.1418 36.4352 59.3136C35.0538 58.6863 33.7738 57.8565 32.6373 56.8514C26.9441 52.1033 22.8377 45.7289 20.8681 38.5821C20.5317 37.4378 20.2746 36.2716 20.0987 35.0919C19.994 34.1871 19.9755 33.7439 20.2464 33.5284Z" stroke="#276E90" stroke-width="2" stroke-miterlimit="10"/>
<path d="M27.8176 60.5755C28.032 60.5537 28.2477 60.6012 28.4331 60.7109C30.6497 62.135 33.0443 63.2609 35.555 64.0594C38.4279 64.8995 41.4481 65.1101 44.4098 64.6767C47.3714 64.2433 50.2047 63.1761 52.7164 61.548C53.4427 61.0679 54.2245 60.5201 55.0862 60.5939C55.8603 60.7605 56.5649 61.16 57.1052 61.7388C59.9292 64.1011 63.3265 65.6765 66.954 66.3062C70.8627 66.9771 75.3746 66.7063 78.1569 69.5378C80.3482 71.7661 80.656 75.1762 80.8345 78.297L81.3577 87.1855C81.5307 88.4284 81.4041 89.6947 80.9884 90.8787C80.2682 92.5099 78.5693 93.4456 76.9504 94.1904C74.3405 95.3784 71.6383 96.3694 68.9483 97.2989C67.2802 97.8713 65.212 98.3453 63.9193 97.1388C63.6799 96.8916 63.4923 96.5991 63.3675 96.2785C63.2426 95.9578 63.183 95.6155 63.1922 95.2715C63.2014 94.9275 63.2791 94.5888 63.4209 94.2753C63.5627 93.9617 63.7656 93.6797 64.0178 93.4456C64.6063 93.0529 65.2236 92.7051 65.8644 92.4053C66.4932 91.9831 67.0126 91.4174 67.3797 90.7549C67.7468 90.0924 67.9511 89.3521 67.9758 88.5951C68.0047 87.08 67.608 85.5872 66.8308 84.2862C65.846 82.5258 64.2763 80.9254 62.2758 80.593C60.2753 80.2606 57.967 81.1531 56.6005 79.7435C55.234 78.3339 56.1573 76.0133 55.9849 74.0559C55.7941 71.6491 53.7136 69.6424 51.3499 69.1315C49.2772 68.7497 47.1374 69.1914 45.3853 70.3626C44.4804 70.9782 43.7787 72.6032 43.0216 73.0156C41.7905 73.6804 40.147 74.0251 39.0513 73.0156C37.2047 71.2736 35.0564 68.5283 32.188 69.0023C30.233 69.2986 28.4684 70.3397 27.2636 71.9076C25.8602 73.8835 26.3218 75.9395 26.3218 78.1924C26.3218 77.8661 26.3218 80.8269 22.8501 80.316C19.5324 79.8235 16.6947 82.218 15.5436 85.1665C14.1279 88.7305 15.2051 91.4881 18.332 93.3902C19.6801 94.2088 19.8709 96.9726 18.1966 97.5759C16.0607 98.3515 1.13987 94.6274 1.0106 89.8077C0.88134 84.988 1.9647 72.9171 2.58024 72.2831C3.19579 71.6491 3.6636 67.6481 10.5146 66.7001C13.8274 66.3005 17.0943 65.5853 20.271 64.5642C21.859 64.0297 23.3891 63.3368 24.8384 62.496C25.6201 62.0405 26.8081 60.6801 27.8176 60.5755Z" stroke="#276E90" stroke-width="2" stroke-miterlimit="10"/>
<path d="M44.3388 108.194C44.645 108.221 44.9492 108.266 45.2498 108.33C48.3891 109 50.5312 111.82 52.384 114.436C52.5929 114.657 52.7504 114.922 52.8451 115.212C52.9398 115.501 52.9694 115.808 52.9318 116.11C52.7627 116.506 52.4716 116.838 52.1009 117.058C51.225 117.768 50.2311 118.318 49.1647 118.683C48.6303 118.86 48.0624 118.913 47.5044 118.837C46.9464 118.762 46.4132 118.559 45.9454 118.246C44.9852 117.52 44.5974 116.264 43.7541 115.408C43.1487 114.835 42.3674 114.484 41.537 114.411C40.7067 114.339 39.8762 114.549 39.1806 115.008C38.0356 115.815 37.4263 117.255 36.2136 117.963C35.6508 118.248 35.0309 118.403 34.4001 118.416C33.7692 118.429 33.1435 118.299 32.5696 118.037C31.4266 117.505 30.372 116.802 29.4426 115.95C28.8771 115.587 28.4618 115.032 28.2731 114.386C28.1438 113.617 28.6609 112.915 28.9194 112.183C29.0635 111.678 29.0983 111.148 29.0213 110.628C28.9444 110.109 28.7576 109.612 28.4733 109.17C28.189 108.729 27.8138 108.353 27.3728 108.068C26.9317 107.783 26.4349 107.595 25.9156 107.517C24.3152 107.388 22.6716 108.342 21.1697 107.794C19.8401 107.314 19.1753 105.861 18.6768 104.538C18.012 102.765 17.5503 100.432 19.0461 99.2687C19.5527 98.9522 20.0814 98.6725 20.628 98.4316C21.0925 98.1298 21.4856 97.7305 21.7803 97.2616C22.0749 96.7926 22.2639 96.265 22.3342 95.7157C22.4045 95.1663 22.3544 94.6082 22.1873 94.0801C22.0202 93.5521 21.7402 93.0667 21.3667 92.6577C20.8619 92.1653 20.2218 91.8268 19.6863 91.3712C19.0502 90.8207 18.5765 90.107 18.316 89.3071C18.0556 88.5073 18.0184 87.6515 18.2084 86.832C18.3984 86.0125 18.8084 85.2604 19.3942 84.6567C19.98 84.053 20.7195 83.6206 21.5329 83.4061C22.6716 83.1045 23.8781 83.2461 25.06 83.1968C26.2418 83.1476 27.5221 82.8583 28.2423 81.9288C29.3442 80.5192 28.6917 78.4817 28.9317 76.7151C29.3688 73.5327 33.3575 71.0706 36.1829 73.0772C37.2047 73.8036 37.9618 74.8377 38.9159 75.6564C39.87 76.4751 41.1565 77.0783 42.3568 76.7028C44.2034 76.0873 44.7389 73.6251 46.4563 72.7202C47.7305 72.0554 49.3001 72.4555 50.6174 73.0342C52.2486 73.7359 53.9536 74.967 54.0337 76.7274C54.0891 77.9585 53.3689 79.0419 53.3135 80.236C53.3032 81.0688 53.6053 81.8752 54.1602 82.4962C54.7151 83.1172 55.4825 83.5077 56.3112 83.5908C57.7331 83.6769 59.0934 82.8213 60.5154 82.9444C62.0911 83.086 63.3099 84.3787 64.1655 85.7144C65.0211 87.0501 65.7352 89.0568 64.7195 90.3987C64.024 91.3158 62.7744 91.599 61.8572 92.2946C61.1566 92.8517 60.6677 93.6318 60.4718 94.5052C60.2758 95.3786 60.3846 96.2928 60.78 97.0958C61.6172 98.6778 63.5007 99.558 64.1778 101.214C64.8549 102.87 64.104 104.766 63.353 106.415C63.1376 106.889 62.8606 107.425 62.3497 107.56C62.2001 107.597 62.0438 107.597 61.8942 107.56C61.4775 107.436 61.0986 107.21 60.7923 106.901L55.4494 102.291C54.7638 101.775 54.1988 101.115 53.7936 100.358C53.3443 99.3549 53.4797 98.1976 53.5412 97.102C53.7444 93.1625 52.6487 89.0076 49.848 86.1945C48.4925 84.8683 46.8388 83.8866 45.0255 83.3318C43.2122 82.777 41.2922 82.6653 39.4268 83.006C37.4596 83.3973 35.6073 84.2311 34.01 85.4441C32.4127 86.6572 31.1123 88.2177 30.2073 90.0076C29.3022 91.7975 28.8163 93.7699 28.7862 95.7754C28.7561 97.7808 29.1826 99.7669 30.0336 101.583C30.9692 103.479 32.3894 105.095 34.1503 106.265C35.9112 107.436 37.9502 108.121 40.0608 108.249C41.5012 108.286 42.9354 108.071 44.3388 108.194Z" stroke="#276E90" stroke-width="1.89" stroke-miterlimit="10"/>
<path d="M33.1051 92.3125H37.851L39.7653 94.2207H41.7966H43.8956L45.7853 92.331H49.8541" fill="white"/>
<path d="M33.1051 92.3125H37.851L39.7653 94.2207H41.7966H43.8956L45.7853 92.331H49.8541" stroke="#276E90" stroke-width="2.24" stroke-miterlimit="10"/>
<path d="M41.9074 95.4274C42.2334 95.4189 42.5562 95.4922 42.8466 95.6405C43.1369 95.7889 43.3854 96.0077 43.5694 96.2769C43.7579 96.5403 43.8808 96.8449 43.928 97.1654C43.9752 97.4858 43.9454 97.8129 43.8409 98.1195C43.7364 98.4261 43.5603 98.7034 43.3273 98.9283C43.0942 99.1533 42.8109 99.3194 42.5008 99.413C42.1907 99.5065 41.8627 99.5248 41.5441 99.4663C41.2255 99.4077 40.9255 99.2741 40.6689 99.0764C40.4123 98.8787 40.2065 98.6227 40.0687 98.3296C39.9308 98.0365 39.8648 97.7147 39.8761 97.391C39.8952 96.8646 40.1174 96.3661 40.4962 96C40.8749 95.6339 41.3807 95.4287 41.9074 95.4274Z" fill="white" stroke="#276E90" stroke-width="2.24" stroke-miterlimit="10"/>
<path d="M41.9751 96.8248C42.0754 96.824 42.1744 96.8477 42.2634 96.8938C42.3524 96.9399 42.4289 97.0071 42.486 97.0895C42.5698 97.1966 42.6157 97.3284 42.6166 97.4644C42.6176 97.6003 42.5735 97.7328 42.4912 97.841C42.409 97.9493 42.2932 98.0272 42.162 98.0628C42.0308 98.0983 41.8915 98.0894 41.7658 98.0375C41.6411 97.9905 41.534 97.9062 41.459 97.796C41.3841 97.6858 41.3451 97.5551 41.3473 97.4219C41.3521 97.2597 41.4208 97.106 41.5384 96.9942C41.6559 96.8824 41.8129 96.8215 41.9751 96.8248Z" fill="white" stroke="#276E90" stroke-width="0.69" stroke-miterlimit="10"/>
</svg>
