<svg width="82" height="93" viewBox="0 0 82 93" fill="none" xmlns="http://www.w3.org/2000/svg">
<path d="M27.0363 32.1904C27.0397 32.1663 27.0397 32.1418 27.0363 32.1177C27.1888 31.1299 26.5424 29.8153 26.3608 28.842C26.1793 27.8687 26.2519 26.663 25.6345 25.7551C25.3392 25.3665 24.9978 25.0152 24.6176 24.7092C22.5549 22.8911 21.087 20.4944 20.4049 17.8308C20.3177 17.4531 19.8166 13.7997 20.2669 13.7706C24.2036 13.4873 27.966 11.962 31.496 10.2842C34.8153 8.71534 37.4011 6.10781 40.6042 4.35735C42.3261 3.37522 44.2802 2.87353 46.2623 2.90469C48.3097 3.0806 50.2825 3.7565 52.0076 4.87305C54.1139 6.11507 56.0678 7.61132 58.1959 8.81703C61.37 10.6183 65.7498 13.3203 69.5848 12.8554C70.3765 12.7247 70.5726 12.9281 70.5726 12.9281C70.5726 12.9281 70.8341 13.2549 70.7687 17.6783C70.7687 19.0002 69.7446 20.6635 69.1418 21.782C68.0948 23.7479 66.6851 25.4977 64.9872 26.939C64.8631 27.0336 64.7593 27.1521 64.6821 27.2876C64.63 27.4317 64.6101 27.5854 64.624 27.738C64.624 28.3844 64.7402 29.0236 64.7402 29.6773C64.7402 30.498 64.0647 31.2098 64.0865 31.9362C64.1208 32.2776 64.2692 32.5974 64.5078 32.8441C64.8636 33.256 65.3048 33.5856 65.8006 33.8101C65.877 33.8275 65.9441 33.8731 65.9885 33.9376C66.0329 34.0022 66.0514 34.0811 66.0403 34.1587C65.9895 36.5048 65.9459 38.8508 65.8951 41.2042C65.8699 42.53 65.4386 43.8161 64.6592 44.889C63.8799 45.9619 62.7901 46.7698 61.5371 47.2036C61.0116 49.1578 60.1937 51.0214 59.1111 52.731C58.4719 53.7261 57.3171 54.4234 56.8377 55.5347C56.2566 56.8639 56.3801 58.4836 56.5326 59.8927C56.5399 60.0138 56.5773 60.1311 56.6416 60.234C56.7453 60.3327 56.8775 60.3962 57.0193 60.4156C61.0453 61.2585 65.0199 62.3304 68.9239 63.626C75.2429 65.9212 79.5356 69.4367 81.0318 76.1915C82.1576 81.2759 82.9711 90.4857 76.0637 91.7205C70.4782 91.9965 64.8709 91.9457 59.2782 91.9747C51.1433 92.0231 43.0059 92.0401 34.8662 92.0256H24.5305C22.9035 92.0256 21.153 92.0256 19.4825 92.0256C17.8714 92.1819 16.2475 92.1453 14.6451 91.9166C12.517 91.4518 11.1732 89.113 10.4469 87.2318C8.02823 80.8546 9.19035 71.5575 14.5071 66.9236C19.8238 62.2896 27.3051 61.7521 33.8493 60.5318C33.9156 60.5285 33.9805 60.512 34.0404 60.4833C34.1002 60.4546 34.1538 60.4143 34.1979 60.3648C34.2535 60.2734 34.2741 60.1651 34.256 60.0597L34.1762 55.8179C34.1762 55.8179 29.179 49.6877 28.9103 46.688C28.9103 46.4483 27.828 45.6711 27.6537 45.4822C26.7247 44.4461 25.9825 43.2567 25.4602 41.9668C24.7828 40.3236 24.6059 38.5169 24.9518 36.7735C25.1802 35.6735 25.5823 34.6167 26.1429 33.643C26.499 33.1972 26.7991 32.7093 27.0363 32.1904Z" fill="#D7E3F4"/>
<path d="M45.507 11.2358C45.1176 11.682 44.8013 12.187 44.57 12.7321C44.4973 12.8556 43.9526 13.9959 43.8436 13.9959H41.7881C41.1174 13.9159 40.4396 13.9159 39.7689 13.9959C40.1725 14.6164 40.6452 15.189 41.178 15.7028L42.006 16.6906C42.0641 16.756 42.3692 17.032 42.3692 17.1264L42.2893 19.4071C42.1892 20.151 42.1721 20.9037 42.2385 21.6514C42.8571 21.1527 43.4241 20.593 43.9308 19.9809L45.3181 18.5936L46.7345 20.0462C47.2652 20.6946 47.8643 21.2839 48.5212 21.804C48.6062 21.0801 48.6062 20.3488 48.5212 19.625V18.3902C48.5212 18.2086 48.405 17.3661 48.5212 17.2571L50.1555 15.5866C50.7694 15.0817 51.3292 14.5146 51.826 13.8942C51.128 13.8252 50.4249 13.8252 49.7269 13.8942H47.5116C46.8951 12.9702 46.2258 12.0826 45.507 11.2358Z" fill="white"/>
<path d="M31.0021 26.2054C30.6752 26.4741 30.8278 27.0697 30.835 27.658C30.835 28.5441 30.8786 29.4303 30.8786 30.3164C30.8732 30.329 30.8704 30.3426 30.8704 30.3563C30.8704 30.3701 30.8732 30.3837 30.8786 30.3963C30.8786 30.3963 30.9295 30.3963 30.9658 30.3963H48.819H58.7915C58.9877 30.3963 59.8592 30.527 59.9755 30.3963C60.0061 30.341 60.0188 30.2775 60.0118 30.2147C60.0118 28.8637 60.0118 27.5127 60.0118 26.1618C60.0167 26.1476 60.0175 26.1323 60.0142 26.1177C60.0108 26.1031 60.0034 26.0897 59.9928 26.0791C59.9822 26.0685 59.9688 26.061 59.9542 26.0577C59.9395 26.0543 59.9243 26.0552 59.9101 26.0601H31.5468C31.3539 26.0433 31.1611 26.0947 31.0021 26.2054Z" fill="white"/>
<path d="M18.8506 30.2874C18.854 30.2609 18.854 30.234 18.8506 30.2075C19.0031 29.2269 18.3567 27.9123 18.1678 26.939C17.979 25.9657 18.0589 24.76 17.4415 23.8521C17.1456 23.4617 16.8015 23.1102 16.4174 22.8062C14.3571 20.9843 12.8919 18.5854 12.2119 15.9205C12.1247 15.5501 11.6236 11.8967 12.0739 11.8676C16.0106 11.5843 19.773 10.059 23.2957 8.38122C26.6151 6.80508 29.2081 4.19755 32.4112 2.45435C34.1318 1.46888 36.0868 0.966944 38.0693 1.00169C40.1162 1.17992 42.0885 1.85564 43.8146 2.97005C45.9209 4.21207 47.8748 5.70105 50.0029 6.91403C53.1697 8.71533 57.5568 11.4173 61.3918 10.9524C62.1835 10.8217 62.3796 11.0178 62.3796 11.0178C62.3796 11.0178 62.6411 11.3519 62.5757 15.768C62.5757 17.0972 61.5516 18.7532 60.9487 19.879C59.9012 21.8424 58.4915 23.5897 56.7941 25.0287C56.6699 25.126 56.5662 25.247 56.4891 25.3846C56.4345 25.5281 56.4122 25.6819 56.4237 25.835C56.4237 26.4814 56.5472 27.1206 56.5399 27.767C56.5399 28.595 55.8644 29.3068 55.8935 30.0332C55.9278 30.3746 56.0762 30.6944 56.3148 30.9411C56.6726 31.3508 57.1133 31.6801 57.6076 31.9071C57.6916 31.9318 57.7638 31.9859 57.811 32.0596C57.8326 32.1207 57.8326 32.1874 57.811 32.2485C57.7674 34.6018 57.7166 36.9478 57.673 39.3012C57.673 39.3012 57.8764 43.4267 53.315 45.2934C52.791 47.2504 51.973 49.1165 50.8891 50.828C50.2426 51.8231 49.095 52.5204 48.6156 53.6244C48.0346 54.9609 48.158 56.5806 48.3106 57.9824C48.3123 58.1045 48.3503 58.2233 48.4195 58.3238C48.5207 58.4272 48.6537 58.4937 48.7972 58.5126C52.823 59.3565 56.7976 60.4283 60.7018 61.723C67.0209 64.0182 71.3062 67.5337 72.8025 74.2813C73.9356 79.3656 74.7491 88.5755 67.8416 89.8102C62.2562 90.0935 56.6489 90.0427 51.0561 90.0717C42.9212 90.1226 34.779 90.1226 26.6368 90.1226H16.3084C14.6814 90.1226 12.931 90.1226 11.2604 90.1226C9.64923 90.2753 8.02571 90.2387 6.42304 90.0136C4.28762 89.5488 2.95117 87.21 2.22484 85.3215C-0.21563 78.9589 0.924709 69.6981 6.24146 65.0641C11.5582 60.4301 19.0394 59.8926 25.5837 58.6724C25.7168 58.6626 25.8413 58.6029 25.9323 58.5054C25.984 58.4126 26.0043 58.3056 25.9904 58.2003L25.925 53.9585C25.925 53.9585 20.9279 47.8283 20.6591 44.8285C20.6591 44.5888 19.5769 43.8117 19.4026 43.6228C18.4538 42.5892 17.6941 41.3968 17.1582 40.1001C16.4804 38.457 16.3035 36.6502 16.6498 34.9068C16.8878 33.796 17.2997 32.7298 17.87 31.7473C18.2552 31.3025 18.5845 30.8122 18.8506 30.2874V30.2874Z" stroke="#0E5D82" stroke-width="2" stroke-miterlimit="10"/>
<path d="M37.3212 9.33984C36.9215 9.78394 36.5954 10.2891 36.3552 10.8361C36.2825 10.9596 35.7305 12.0926 35.6288 12.0926H33.5661C32.8976 12.0163 32.2226 12.0163 31.5541 12.0926C31.9576 12.7154 32.4303 13.2904 32.9632 13.8068L33.7912 14.7873C33.8421 14.86 34.1544 15.1287 34.1544 15.2231L34.0745 17.5111C33.9743 18.255 33.9573 19.0077 34.0236 19.7554C34.6423 19.2567 35.2093 18.697 35.716 18.0849L37.0815 16.7194L38.5342 18.1357C39.0629 18.7881 39.6621 19.38 40.3209 19.9007C40.4059 19.1769 40.4059 18.4456 40.3209 17.7217V16.4869C40.3209 16.3054 40.2047 15.4628 40.3209 15.3466L41.977 13.6906C42.5908 13.1857 43.1507 12.6186 43.6475 11.9982C42.9471 11.9292 42.2416 11.9292 41.5412 11.9982H39.3622C38.7341 11.0732 38.0526 10.1856 37.3212 9.33984V9.33984Z" stroke="#0E5D82" stroke-width="2" stroke-miterlimit="10"/>
<path d="M22.8164 24.3098C22.4895 24.5786 22.6348 25.1742 22.6493 25.7625C22.6493 26.6486 22.6856 27.5348 22.6929 28.4209C22.6861 28.4471 22.6861 28.4746 22.6929 28.5008C22.721 28.5114 22.7519 28.5114 22.78 28.5008H40.6405H50.6131C50.8092 28.5008 51.6808 28.6315 51.797 28.5008C51.8272 28.4453 51.8398 28.382 51.8333 28.3192C51.8333 26.9682 51.8333 25.6172 51.8333 24.2663C51.8382 24.2521 51.839 24.2368 51.8357 24.2222C51.8323 24.2076 51.8249 24.1942 51.8143 24.1836C51.8037 24.1729 51.7903 24.1655 51.7757 24.1622C51.7611 24.1588 51.7458 24.1597 51.7316 24.1646H23.3611C23.168 24.1465 22.9748 24.198 22.8164 24.3098V24.3098Z" stroke="#0E5D82" stroke-width="2" stroke-miterlimit="10"/>
</svg>
